<svg xmlns="http://www.w3.org/2000/svg" width="34" height="34" viewBox="0 0 34 34" fill="none">
  <path d="M9.70711 16.2929C9.31658 15.9024 8.68342 15.9024 8.29289 16.2929C7.90237 16.6834 7.90237 17.3166 8.29289 17.7071L9.70711 16.2929ZM14.3333 22.3333L13.6262 23.0404C14.0168 23.431 14.6499 23.431 15.0404 23.0404L14.3333 22.3333ZM25.7071 12.3738C26.0976 11.9832 26.0976 11.3501 25.7071 10.9596C25.3166 10.569 24.6834 10.569 24.2929 10.9596L25.7071 12.3738ZM6.33333 2H27.6667V0H6.33333V2ZM32 6.33333V27.6667H34V6.33333H32ZM27.6667 32H6.33333V34H27.6667V32ZM2 27.6667V6.33333H0V27.6667H2ZM6.33333 32C3.9401 32 2 30.0599 2 27.6667H0C0 31.1645 2.83553 34 6.33333 34V32ZM32 27.6667C32 30.0599 30.0599 32 27.6667 32V34C31.1645 34 34 31.1645 34 27.6667H32ZM27.6667 2C30.0599 2 32 3.9401 32 6.33333H34C34 2.83553 31.1645 0 27.6667 0V2ZM6.33333 0C2.83553 0 0 2.83553 0 6.33333H2C2 3.9401 3.9401 2 6.33333 2V0ZM8.29289 17.7071L13.6262 23.0404L15.0404 21.6262L9.70711 16.2929L8.29289 17.7071ZM15.0404 23.0404L25.7071 12.3738L24.2929 10.9596L13.6262 21.6262L15.0404 23.0404Z" fill="#4AB246"/>
</svg>