<svg width="20" height="21" viewBox="0 0 20 21" fill="none" xmlns="http://www.w3.org/2000/svg">
<path id="bed-front" d="M20 16.2615V13.1036C20 11.8299 19.6316 10.8826 18.9474 10.272V4.68256C18.9474 2.27204 17.6737 0.998352 15.2632 0.998352H4.73684C2.32632 0.998352 1.05263 2.27204 1.05263 4.68256V10.272C0.368421 10.8931 0 11.8405 0 13.1036V16.2615V18.8931V20.472C0 20.7668 0.231579 20.9984 0.526316 20.9984C0.821053 20.9984 1.05263 20.7668 1.05263 20.472V19.4194H18.9474V20.472C18.9474 20.7668 19.1789 20.9984 19.4737 20.9984C19.7684 20.9984 20 20.7668 20 20.472V16.2615ZM2.10526 4.68256C2.10526 2.86151 2.91579 2.05098 4.73684 2.05098H15.2632C17.0842 2.05098 17.8947 2.86151 17.8947 4.68256V9.65098C17.5789 9.54572 17.2211 9.48256 16.8421 9.45098V6.62994C16.8421 5.55625 15.8947 4.68256 14.7368 4.68256H11.5789C10.9474 4.68256 10.3895 4.94572 10 5.35625C9.61053 4.94572 9.05263 4.68256 8.42105 4.68256H5.26316C4.10526 4.68256 3.15789 5.55625 3.15789 6.62994V9.45098C2.77895 9.48256 2.42105 9.54572 2.10526 9.65098V4.68256ZM10.5263 9.4194V6.62994C10.5263 6.1352 11 5.73519 11.5789 5.73519H14.7368C15.3158 5.73519 15.7895 6.1352 15.7895 6.62994V9.4194H10.5263ZM4.21053 9.4194V6.62994C4.21053 6.1352 4.68421 5.73519 5.26316 5.73519H8.42105C9 5.73519 9.47368 6.1352 9.47368 6.62994V9.4194H4.21053ZM1.05263 13.1036C1.05263 11.2826 1.86316 10.472 3.68421 10.472H16.3158C18.1368 10.472 18.9474 11.2826 18.9474 13.1036V15.7352H1.05263V13.1036ZM1.05263 18.3668V16.7878H18.9474V18.3668H1.05263Z" fill="#00171F"/>
</svg>
