<svg width="20" height="24" viewBox="0 0 20 24" fill="none" xmlns="http://www.w3.org/2000/svg">
<path id="tablet" d="M12.9412 5.116C12.9412 5.44071 12.6776 5.70423 12.3529 5.70423H7.64706C7.32235 5.70423 7.05882 5.44071 7.05882 5.116C7.05882 4.79129 7.32235 4.52776 7.64706 4.52776H12.3529C12.6776 4.52776 12.9412 4.79129 12.9412 5.116ZM20 5.116V19.2336C20 21.9278 18.5765 23.3513 15.8824 23.3513H4.11765C1.42353 23.3513 0 21.9278 0 19.2336V5.116C0 2.42188 1.42353 0.998352 4.11765 0.998352H15.8824C18.5765 0.998352 20 2.42188 20 5.116ZM18.8235 5.116C18.8235 3.08188 17.9165 2.17482 15.8824 2.17482H4.11765C2.08353 2.17482 1.17647 3.08188 1.17647 5.116V19.2336C1.17647 21.2678 2.08353 22.1748 4.11765 22.1748H15.8824C17.9165 22.1748 18.8235 21.2678 18.8235 19.2336V5.116ZM10 18.3513C9.51294 18.3513 9.11765 18.7466 9.11765 19.2336C9.11765 19.7207 9.51294 20.116 10 20.116C10.4871 20.116 10.8824 19.7207 10.8824 19.2336C10.8824 18.7466 10.4871 18.3513 10 18.3513Z" fill="#00171F"/>
</svg>
