<svg width="20" height="20" viewBox="0 0 20 20" fill="none" xmlns="http://www.w3.org/2000/svg">
<path id="tool" d="M19.5174 4.07919C19.4521 3.91602 19.3079 3.79601 19.1352 3.76127C18.9615 3.72547 18.7836 3.78019 18.6583 3.90336L16.3613 6.18883C15.9571 6.59202 15.297 6.59201 14.8917 6.18671L13.8127 5.10768C13.4085 4.70239 13.4074 4.04339 13.8116 3.63809L16.0971 1.34212C16.2213 1.21684 16.275 1.03788 16.2392 0.865234C16.2034 0.692589 16.0845 0.54836 15.9202 0.483091C13.9738 -0.303288 11.8041 -0.12328 9.96817 0.976809C9.13757 1.47474 8.43647 2.15796 7.93854 2.95065V2.95171L7.85432 3.09066C7.03109 4.45077 6.71317 5.97827 6.93529 7.50681C6.97951 7.81421 6.86898 8.1353 6.63843 8.36584L1.03482 13.9694C0.3674 14.6369 0 15.5243 0 16.4675C0 17.4108 0.3674 18.2982 1.03482 18.9656C1.7233 19.6541 2.62864 19.9983 3.53292 19.9983C4.4372 19.9983 5.34254 19.6541 6.03102 18.9656L11.6346 13.362C11.8652 13.1315 12.1852 13.0188 12.4947 13.0662C14.0243 13.2894 15.5444 12.9736 16.8993 12.1577C17.7709 11.6345 18.5026 10.9029 19.0131 10.0439C20.1216 8.20687 20.3058 6.03303 19.5174 4.07919ZM18.1088 9.50276C17.6856 10.2155 17.0793 10.8208 16.355 11.2555C15.2107 11.9451 13.9274 12.2114 12.6442 12.024C12.0126 11.9335 11.3525 12.1535 10.8893 12.6178L5.28569 18.2214C4.31824 19.1888 2.74548 19.1878 1.77803 18.2214C1.30957 17.7529 1.05166 17.1307 1.05166 16.4675C1.05166 15.8043 1.30957 15.1822 1.77803 14.7137L7.38164 9.11011C7.84589 8.64586 8.06802 7.99003 7.97539 7.35524C7.78905 6.07093 8.05854 4.78451 8.75649 3.62968L8.83019 3.50859C9.23969 2.85591 9.81973 2.29271 10.5082 1.88004C12.1578 0.892594 13.6895 0.950493 14.7433 1.20841L13.0632 2.89591C12.2515 3.71177 12.2526 5.03821 13.0663 5.85301L14.1453 6.93204C14.9591 7.74684 16.2866 7.74789 17.1014 6.93519L18.7899 5.25611C19.1363 6.68254 18.9015 8.19108 18.1088 9.50276ZM4.47405 16.3149C4.47405 16.7507 4.12138 17.1044 3.68872 17.1044C3.25394 17.1044 2.89497 16.7507 2.89497 16.3149C2.89497 15.8791 3.23922 15.5254 3.67188 15.5254H3.68767C4.12139 15.5254 4.47405 15.8791 4.47405 16.3149Z" fill="#00171F"/>
</svg>
