<svg width="20" height="21" viewBox="0 0 20 21" fill="none" xmlns="http://www.w3.org/2000/svg">
<path id="headphones" d="M19.3843 15.8164C19.7801 14.2144 19.999 12.562 19.999 10.9978C19.999 5.48444 15.5129 0.998352 9.99949 0.998352C4.48609 0.998352 0 5.48444 0 10.9978C0 12.562 0.21892 14.2146 0.614689 15.8177C0.621004 15.8503 0.620916 15.883 0.629336 15.9156C0.64723 15.9893 0.672603 16.0565 0.690497 16.1302C0.714706 16.2197 0.731535 16.3123 0.756797 16.4018C0.76206 16.4229 0.776926 16.4376 0.784294 16.4565C0.883236 16.8176 0.97796 17.1837 1.09164 17.5269L1.5894 19.1407C1.93781 20.269 2.98206 20.9973 4.10726 20.9973C4.36093 20.9973 4.61882 20.9606 4.8746 20.8827L5.88914 20.572C6.29333 20.4489 6.62485 20.1763 6.82274 19.8037C7.02062 19.4311 7.06284 19.0039 6.93863 18.6018L5.37647 13.4903C5.25227 13.0871 4.97864 12.7556 4.60708 12.5577C4.23447 12.3609 3.80813 12.3189 3.40289 12.4431L2.41147 12.7473C1.93992 12.8915 1.54192 13.164 1.23246 13.5093C1.11563 12.6609 1.05463 11.8167 1.05463 10.9989C1.05463 6.06544 5.06811 2.05196 10.0015 2.05196C14.935 2.05196 18.9485 6.06544 18.9485 10.9989C18.9485 11.8167 18.8875 12.6609 18.7706 13.5093C18.4622 13.163 18.0642 12.8915 17.5916 12.7473L16.6002 12.4431C16.196 12.3199 15.7686 12.3609 15.396 12.5577C15.0234 12.7556 14.7508 13.0871 14.6266 13.4913L13.0657 18.6018C12.9415 19.0049 12.9825 19.4321 13.1803 19.8047C13.3782 20.1773 13.7098 20.451 14.1129 20.5731L15.1287 20.8837C15.3835 20.9616 15.6414 20.9984 15.8961 20.9984C17.0202 20.9984 18.0653 20.2711 18.4137 19.1417L18.9107 17.5333C19.0286 17.1743 19.1265 16.8029 19.2265 16.4324C19.2307 16.4208 19.2431 16.4144 19.2473 16.4028C19.2715 16.3144 19.2894 16.2238 19.3126 16.1343C19.3315 16.0606 19.3569 15.9914 19.3748 15.9166C19.3779 15.883 19.378 15.8501 19.3843 15.8164ZM2.71779 13.7524L3.7092 13.4481C3.76078 13.4323 3.81338 13.425 3.86391 13.425C3.94916 13.425 4.03351 13.4461 4.11035 13.4872C4.23455 13.5535 4.32499 13.6639 4.36604 13.7976L5.92923 18.9091C5.97028 19.0428 5.95543 19.1858 5.89017 19.309C5.82491 19.4332 5.71449 19.5247 5.57871 19.5657L4.56288 19.8764C3.73766 20.1311 2.84921 19.6615 2.59238 18.831L2.09154 17.2079C1.94733 16.7722 1.82211 16.3217 1.70633 15.8691C1.68106 15.7712 1.65884 15.6722 1.63463 15.5743C1.49043 14.7754 1.9473 13.9882 2.71779 13.7524ZM17.9023 17.2164L17.4043 18.83C17.1474 19.6605 16.2603 20.1301 15.434 19.8754L14.4172 19.5647C14.2824 19.5236 14.1731 19.4332 14.1067 19.308C14.0415 19.1838 14.0266 19.0415 14.0687 18.9068L15.6309 13.7966C15.6719 13.6618 15.7624 13.5514 15.8866 13.4851C15.9634 13.4441 16.0475 13.4229 16.1328 13.4229C16.1843 13.4229 16.2372 13.4303 16.2877 13.4461L17.2791 13.7503C18.0496 13.9861 18.5065 14.7734 18.3602 15.5702C18.336 15.6692 18.3148 15.7681 18.2885 15.866C18.1728 16.3197 18.0475 16.7691 17.9033 17.2049C17.9044 17.2091 17.9034 17.2133 17.9023 17.2164Z" fill="#00171F"/>
</svg>
