<svg width="21" height="20" viewBox="0 0 21 20" fill="none" xmlns="http://www.w3.org/2000/svg">
<path id="home-roof" d="M19.8108 7.13284L12.0076 0.716156C10.8453 -0.238719 9.15767 -0.238719 7.9954 0.716156L0.192185 7.13284C-0.0331109 7.31707 -0.0646872 7.64986 0.120603 7.8741C0.30484 8.0994 0.637522 8.13095 0.860712 7.94671L2.10614 6.92233V16.3153C2.10614 18.7261 3.38 20 5.79088 20H14.2131C16.624 20 17.8979 18.7261 17.8979 16.3153V6.92233L19.1433 7.94671C19.2412 8.02778 19.3591 8.06675 19.4771 8.06675C19.6297 8.06675 19.7792 8.00149 19.8834 7.8741C20.0687 7.64986 20.0361 7.31707 19.8108 7.13284ZM12.1076 18.9472H7.89644V14.7361C7.89644 13.5749 8.84079 12.6305 10.002 12.6305C11.1632 12.6305 12.1076 13.5749 12.1076 14.7361V18.9472ZM16.8451 16.3153C16.8451 18.1355 16.0334 18.9472 14.2131 18.9472H13.1604V14.7361C13.1604 12.9948 11.7433 11.5777 10.002 11.5777C8.26071 11.5777 6.84366 12.9948 6.84366 14.7361V18.9472H5.79088C3.97062 18.9472 3.15892 18.1355 3.15892 16.3153V6.05589L8.66393 1.52888C9.43878 0.892994 10.5642 0.892994 11.3391 1.52888L16.8441 6.05589V16.3153H16.8451Z" fill="#00171F"/>
</svg>
