<svg width="20" height="16" viewBox="0 0 20 16" fill="none" xmlns="http://www.w3.org/2000/svg">
<path id="plate-utensils" d="M3.36193 7.4V14.1905C3.36193 14.4571 3.15241 14.6667 2.88574 14.6667C2.61908 14.6667 2.40955 14.4571 2.40955 14.1905V7.4C1.04765 7.17143 0 5.99048 0 4.56191V1.80953C0 1.54286 0.209524 1.33334 0.47619 1.33334C0.742857 1.33334 0.952381 1.54286 0.952381 1.80953V4.56191C0.952381 5.45715 1.57146 6.20953 2.40955 6.42858V1.80953C2.40955 1.54286 2.61908 1.33334 2.88574 1.33334C3.15241 1.33334 3.36193 1.54286 3.36193 1.80953V6.42858C4.20003 6.21906 4.81905 5.46667 4.81905 4.56191V1.80953C4.81905 1.54286 5.02857 1.33334 5.29524 1.33334C5.5619 1.33334 5.77143 1.54286 5.77143 1.80953V4.56191C5.77143 5.99048 4.72384 7.17143 3.36193 7.4ZM20 1.33334V14.6667C20 14.9333 19.7905 15.1429 19.5238 15.1429C19.2571 15.1429 19.0476 14.9333 19.0476 14.6667V10.381H16.5619C16.0953 10.381 15.7143 10 15.7143 9.53334V5.78095C15.7143 0.914288 19.4857 0.857147 19.5238 0.857147C19.7905 0.857147 20 1.06667 20 1.33334ZM19.0476 1.8762C18.2286 2.0762 16.6667 2.8381 16.6667 5.77144V9.41906H19.0476V1.86667V1.8762ZM15.0762 11.5333C13.9238 13.1905 12.0286 14.181 10 14.181C7.97143 14.181 6.07618 13.1905 4.93333 11.5333C4.78095 11.3143 4.4857 11.2667 4.26665 11.4095C4.0476 11.5619 3.99045 11.8571 4.14283 12.0762C5.45712 13.9905 7.64761 15.1429 9.99047 15.1429C12.3333 15.1429 14.5238 14 15.8476 12.0762C16 11.8571 15.9429 11.5619 15.7238 11.4095C15.5143 11.2571 15.2095 11.3143 15.0571 11.5333H15.0762ZM7.35235 2.40953C8.18092 2.00953 9.06667 1.80953 10 1.80953C11.6286 1.80953 13.1619 2.4381 14.3238 3.58096C14.419 3.6762 14.5333 3.71429 14.6572 3.71429C14.781 3.71429 14.9048 3.66668 15 3.57144C15.181 3.38096 15.181 3.08572 15 2.89524C13.6667 1.58096 11.8952 0.857147 10.0095 0.857147C8.93334 0.857147 7.89522 1.09524 6.94284 1.55238C6.70474 1.66667 6.60952 1.95238 6.72381 2.19047C6.83809 2.42857 7.12379 2.52382 7.36189 2.40953H7.35235ZM6.19048 8C6.19048 5.89524 7.89524 4.19048 10 4.19048C12.1048 4.19048 13.8095 5.89524 13.8095 8C13.8095 10.1048 12.1048 11.8095 10 11.8095C7.89524 11.8095 6.19048 10.1048 6.19048 8ZM7.14286 8C7.14286 9.57143 8.42857 10.8571 10 10.8571C11.5714 10.8571 12.8571 9.57143 12.8571 8C12.8571 6.42858 11.5714 5.14286 10 5.14286C8.42857 5.14286 7.14286 6.42858 7.14286 8Z" fill="#00171F"/>
</svg>
