<svg width="20" height="21" viewBox="0 0 20 21" fill="none" xmlns="http://www.w3.org/2000/svg">
<path d="M18.938 2.40991L14.3849 0.747614C14.122 0.652926 13.817 0.663456 13.5647 0.789706C13.3123 0.915957 13.123 1.12637 13.0389 1.38939C12.755 2.24158 11.9664 3.68294 9.98949 3.68294C8.01262 3.68294 7.23449 2.2521 6.94006 1.38939C6.85594 1.12637 6.66667 0.915957 6.4143 0.789706C6.16193 0.663456 5.85699 0.652926 5.59411 0.747614L1.04101 2.40991C0.420612 2.63085 0 3.23054 0 3.89335V7.18637C0 7.69137 0.231334 8.14378 0.630913 8.44888C1.03049 8.75399 1.53522 8.84866 2.01893 8.70137L3.69085 8.22794V18.5804C3.69085 19.7377 4.63723 20.6846 5.7939 20.6846H14.2061C15.3628 20.6846 16.3092 19.7377 16.3092 18.5804V8.22794L17.9811 8.70137C18.4648 8.83814 18.9695 8.74347 19.3691 8.44888C19.7687 8.14378 20 7.69137 20 7.18637V3.89335C20 3.23054 19.5794 2.64137 18.959 2.40991H18.938ZM18.9274 7.18637C18.9274 7.3547 18.8538 7.502 18.7171 7.60721C18.5804 7.71242 18.4122 7.74398 18.2545 7.69138L15.9096 7.01805C15.7518 6.97596 15.5836 7.00753 15.4469 7.10221C15.3207 7.1969 15.2366 7.35471 15.2366 7.52304V18.5699C15.2366 19.1486 14.7634 19.622 14.1851 19.622H5.77287C5.19453 19.622 4.72135 19.1486 4.72135 18.5699V7.52304C4.72135 7.35471 4.64774 7.20742 4.51104 7.10221C4.41641 7.02857 4.31125 6.997 4.19559 6.997C4.14301 6.997 4.10095 6.997 4.04837 7.01805L1.70347 7.69138C1.54574 7.73346 1.3775 7.7019 1.2408 7.60721C1.1041 7.502 1.03049 7.3547 1.03049 7.18637V3.89335C1.03049 3.67242 1.16719 3.47252 1.3775 3.39887L5.9306 1.72606C6.23554 2.63085 7.23449 4.73502 9.96846 4.73502C12.7024 4.73502 13.7014 2.63084 13.9958 1.74709L18.5489 3.39887C18.7592 3.47252 18.8959 3.67242 18.8959 3.89335V7.18637H18.9274Z" fill="#00171F"/>
</svg>
