<svg xmlns="http://www.w3.org/2000/svg" width="446" height="446" viewBox="0 0 446 446" fill="none">
<g clip-path="url(#clip0_372_2624)">
<path d="M262.892 90.0021C286.673 79.8427 312.881 98.0937 311.599 123.922L308.855 179.242C307.978 196.916 320.431 212.465 337.871 215.468L368.266 220.704C400.282 226.218 408.163 268.584 380.273 285.244L308.648 328.027C302.441 331.734 297.535 337.272 294.603 343.881L276.551 384.571C268.122 403.57 245.089 411.08 227.081 400.701L158.388 361.11C155.513 359.453 152.417 358.213 149.192 357.428L84.7754 341.74C64.7231 336.857 53.2282 315.772 59.9872 296.272L77.3957 246.047C79.6242 239.617 79.9302 232.678 78.2762 226.077L65.3464 174.477C59.647 151.732 77.4873 129.926 100.91 131.007L152.474 133.387C157.739 133.63 162.991 132.68 167.837 130.61L262.892 90.0021Z" fill="#E3EDFD"/>
<path d="M124.747 377.418C125.127 374.548 128.951 373.828 130.348 376.364L134.025 383.036C134.485 383.871 135.314 384.437 136.259 384.562L143.811 385.563C146.681 385.944 147.401 389.767 144.865 391.165L138.192 394.842C137.358 395.302 136.792 396.131 136.666 397.075L135.665 404.628C135.285 407.498 131.461 408.217 130.064 405.682L126.387 399.009C125.927 398.175 125.098 397.608 124.153 397.483L116.601 396.482C113.731 396.102 113.011 392.278 115.547 390.881L122.22 387.204C123.054 386.744 123.62 385.915 123.746 384.97L124.747 377.418Z" fill="#4F5F99" fill-opacity="0.38"/>
<path d="M341.688 355.794C344.272 354.489 347.023 357.24 345.718 359.825L342.283 366.625C341.854 367.476 341.854 368.48 342.283 369.33L345.718 376.131C347.023 378.715 344.272 381.466 341.688 380.161L334.887 376.727C334.037 376.297 333.033 376.297 332.182 376.727L325.382 380.161C322.797 381.466 320.046 378.715 321.351 376.131L324.786 369.33C325.215 368.48 325.215 367.476 324.786 366.625L321.351 359.825C320.046 357.24 322.797 354.489 325.382 355.794L332.182 359.229C333.033 359.658 334.037 359.658 334.887 359.229L341.688 355.794Z" fill="#4F5F99" fill-opacity="0.38"/>
<path d="M357.418 155.565C358.982 153.128 362.749 154.101 362.937 156.99L363.431 164.593C363.493 165.544 364.003 166.409 364.804 166.923L371.216 171.038C373.653 172.602 372.68 176.369 369.791 176.556L362.188 177.051C361.237 177.112 360.372 177.622 359.858 178.424L355.743 184.836C354.179 187.273 350.412 186.299 350.224 183.41L349.73 175.808C349.668 174.857 349.159 173.992 348.357 173.478L341.945 169.363C339.508 167.799 340.481 164.032 343.371 163.844L350.973 163.35C351.924 163.288 352.789 162.778 353.303 161.977L357.418 155.565Z" fill="#9DA4AE" fill-opacity="0.27"/>
<path d="M168.303 75.2235C169.692 72.6834 173.518 73.3907 173.908 76.2596L175.537 88.2619C175.665 89.2059 176.234 90.033 177.07 90.4903L187.696 96.303C190.236 97.6925 189.529 101.518 186.66 101.908L174.658 103.537C173.714 103.665 172.887 104.234 172.43 105.07L166.617 115.696C165.227 118.236 161.402 117.529 161.012 114.66L159.383 102.658C159.255 101.714 158.686 100.887 157.85 100.43L147.223 94.6169C144.683 93.2274 145.391 89.4016 148.26 89.0122L160.262 87.3828C161.206 87.2547 162.033 86.6857 162.49 85.8498L168.303 75.2235Z" fill="#4F5F99" fill-opacity="0.38"/>
<path d="M47.9496 218.094C50.1081 216.164 53.4774 218.11 52.8856 220.944L51.4166 227.979C51.2218 228.911 51.4817 229.881 52.1166 230.591L56.9064 235.949C58.836 238.108 56.8907 241.477 54.0566 240.885L47.0215 239.416C46.0889 239.222 45.1192 239.481 44.4089 240.116L39.0509 244.906C36.8924 246.836 33.523 244.89 34.1148 242.056L35.5839 235.021C35.7786 234.089 35.5188 233.119 34.8838 232.409L30.094 227.051C28.1645 224.892 30.1098 221.523 32.9439 222.115L39.9789 223.584C40.9116 223.778 41.8813 223.519 42.5916 222.884L47.9496 218.094Z" fill="#9DA4AE" fill-opacity="0.27"/>
<path d="M251.109 216.1L242.978 216.957L246.527 199.618C246.846 198.056 247.583 196.61 248.659 195.433C249.734 194.256 251.109 193.393 252.636 192.935L268.959 188.027C272.199 187.056 275.466 189.475 275.466 192.865C275.466 196.052 272.296 198.276 269.304 197.191L267.035 196.679L257.889 199.389C257 199.654 256.195 200.147 255.555 200.819C254.916 201.491 254.463 202.319 254.243 203.22L251.109 216.1ZM242.678 252.905L237.019 276.962L230.142 274.534L234.38 252.905H242.678Z" fill="#9DA4AE"/>
<path d="M238.679 269.899H183.132V277.253H237.425L238.679 269.899Z" fill="#9DA4AE"/>
<path d="M168.221 222.298L174.763 254.185C175.266 256.657 177.438 258.423 179.954 258.423H240.444C240.844 258.423 241.231 258.288 241.544 258.039C241.857 257.791 242.076 257.443 242.166 257.054L252.777 211.139C253.051 209.965 252.097 208.879 250.897 208.985L172.936 215.959C172.193 216.025 171.472 216.248 170.821 216.612C170.17 216.976 169.604 217.474 169.159 218.072C168.713 218.671 168.4 219.357 168.238 220.085C168.077 220.813 168.071 221.567 168.221 222.298ZM180.537 223.26L184.297 222.925C184.664 222.891 185.033 222.935 185.382 223.053C185.731 223.17 186.051 223.359 186.323 223.608C186.595 223.856 186.812 224.158 186.96 224.495C187.108 224.832 187.185 225.196 187.184 225.564V229.819C187.184 231.285 186.001 232.468 184.536 232.468H180.581C179.327 232.468 178.241 231.585 177.985 230.349L177.403 227.489C177.3 227.002 177.301 226.499 177.407 226.013C177.513 225.526 177.721 225.068 178.017 224.668C178.313 224.269 178.691 223.936 179.126 223.694C179.56 223.451 180.041 223.303 180.537 223.26ZM214.269 239.521H219.283C220.749 239.521 221.932 240.704 221.932 242.17V247.829C221.932 249.294 220.749 250.477 219.283 250.477H214.269C212.804 250.477 211.621 249.294 211.621 247.829V242.17C211.621 240.704 212.804 239.521 214.269 239.521ZM219.283 232.459H214.269C212.804 232.459 211.621 231.276 211.621 229.811V222.898C211.621 221.53 212.671 220.382 214.031 220.259L219.045 219.808C219.412 219.775 219.781 219.819 220.13 219.936C220.478 220.054 220.799 220.243 221.071 220.491C221.342 220.74 221.559 221.042 221.707 221.379C221.856 221.716 221.932 222.08 221.932 222.448V229.811C221.932 231.276 220.749 232.459 219.283 232.459ZM204.558 242.17V247.829C204.558 249.294 203.375 250.477 201.91 250.477H196.895C195.43 250.477 194.247 249.294 194.247 247.829V242.17C194.247 240.704 195.43 239.521 196.895 239.521H201.91C203.375 239.521 204.558 240.704 204.558 242.17ZM201.91 232.459H196.895C195.43 232.459 194.247 231.276 194.247 229.811V224.452C194.247 223.084 195.297 221.936 196.657 221.812L201.671 221.362C202.038 221.329 202.407 221.373 202.756 221.49C203.105 221.608 203.425 221.797 203.697 222.045C203.968 222.294 204.185 222.596 204.334 222.933C204.482 223.27 204.558 223.634 204.558 224.002V229.811C204.558 231.276 203.375 232.459 201.91 232.459ZM242.289 221.212L240.162 230.402C240.027 230.985 239.699 231.504 239.231 231.876C238.762 232.248 238.182 232.451 237.584 232.45H231.643C230.177 232.45 228.994 231.267 228.994 229.802V221.344C228.994 219.976 230.045 218.828 231.404 218.705L239.464 217.981C241.265 217.822 242.696 219.464 242.289 221.212ZM232.72 250.477H230.769C229.798 250.477 229.003 249.683 229.003 248.712V242.17C229.003 240.704 230.186 239.521 231.652 239.521H234.733C236.436 239.521 237.699 241.111 237.31 242.77L236.163 247.749C235.98 248.525 235.54 249.217 234.916 249.712C234.291 250.207 233.517 250.477 232.72 250.477ZM180.404 242.143C180.122 240.784 181.163 239.513 182.55 239.513H184.536C186.001 239.513 187.184 240.696 187.184 242.161V248.279C187.184 248.86 186.954 249.417 186.543 249.827C186.132 250.238 185.576 250.468 184.995 250.468C183.318 250.468 181.87 249.285 181.534 247.643L180.404 242.143Z" fill="#4F5F99"/>
<path d="M233.188 283.433C238.551 283.433 242.898 279.085 242.898 273.722C242.898 268.358 238.551 264.011 233.188 264.011C227.824 264.011 223.477 268.358 223.477 273.722C223.477 279.085 227.824 283.433 233.188 283.433Z" fill="#2F2F2F"/>
<path d="M233.188 278.25C235.689 278.25 237.716 276.223 237.716 273.722C237.716 271.22 235.689 269.193 233.188 269.193C230.686 269.193 228.659 271.22 228.659 273.722C228.659 276.223 230.686 278.25 233.188 278.25Z" fill="#9DA4AE"/>
<path d="M186.54 283.433C191.903 283.433 196.251 279.085 196.251 273.722C196.251 268.358 191.903 264.011 186.54 264.011C181.177 264.011 176.829 268.358 176.829 273.722C176.829 279.085 181.177 283.433 186.54 283.433Z" fill="#2F2F2F"/>
<path d="M186.54 278.25C189.041 278.25 191.069 276.223 191.069 273.722C191.069 271.22 189.041 269.193 186.54 269.193C184.039 269.193 182.011 271.22 182.011 273.722C182.011 276.223 184.039 278.25 186.54 278.25Z" fill="#9DA4AE"/>
<path d="M271.193 200.74C274.805 200.74 277.734 197.811 277.734 194.198C277.734 190.585 274.805 187.656 271.193 187.656C267.58 187.656 264.651 190.585 264.651 194.198C264.651 197.811 267.58 200.74 271.193 200.74Z" fill="#9DA4AE"/>
</g>
<defs>
<clipPath id="clip0_372_2624">
<rect width="446" height="446" fill="white"/>
</clipPath>
</defs>
</svg>