<svg viewBox="0 0 20 20" xmlns="http://www.w3.org/2000/svg" xmlns:xlink="http://www.w3.org/1999/xlink">
    <style>:root&gt;svg{display:none}:root&gt;svg:target{display:block}</style>
    <svg id="arrow-down-icon" width="16" height="6" viewBox="0 0 8 4" fill="none" xmlns="http://www.w3.org/2000/svg">
        <path d="M3.99802 4C3.81883 4 3.63961 3.93469 3.50312 3.8047L0.70328 1.13815C0.429595 0.8775 0.429595 0.456145 0.70328 0.195491C0.976964 -0.0651636 1.41938 -0.0651636 1.69307 0.195491L3.99802 2.3907L6.30296 0.195491C6.57665 -0.0651636 7.01907 -0.0651636 7.29275 0.195491C7.56644 0.456145 7.56644 0.8775 7.29275 1.13815L4.49291 3.8047C4.35642 3.93469 4.17721 4 3.99802 4Z" fill="#00171F"></path>
    </svg>
    <svg id="cart-icon" width="19" height="20" viewBox="0 0 19 20" fill="none">
        <path
            d="M16.4615 5.12821H14.1538V4.35897C14.1538 1.95487 12.199 0 9.79487 0C7.39077 0 5.4359 1.95487 5.4359 4.35897V5.12821H3.1282C1.85641 5.12821 0.820511 6.16308 0.820511 7.4359V16.1538C0.820511 18.6338 2.18666 20 4.66666 20H14.9231C17.4031 20 18.7692 18.6338 18.7692 16.1538V7.4359C18.7692 6.16308 17.7333 5.12821 16.4615 5.12821ZM6.97436 4.35897C6.97436 2.80308 8.23897 1.53846 9.79487 1.53846C11.3508 1.53846 12.6154 2.80308 12.6154 4.35897V5.12821H6.97436V4.35897ZM17.2308 16.1538C17.2308 17.7713 16.5405 18.4615 14.9231 18.4615H4.66666C3.04923 18.4615 2.35897 17.7713 2.35897 16.1538V7.4359C2.35897 7.01128 2.70461 6.66667 3.1282 6.66667H5.4359V8.97436C5.4359 9.39897 5.78051 9.74359 6.20513 9.74359C6.62974 9.74359 6.97436 9.39897 6.97436 8.97436V6.66667H12.6154V8.97436C12.6154 9.39897 12.96 9.74359 13.3846 9.74359C13.8092 9.74359 14.1538 9.39897 14.1538 8.97436V6.66667H16.4615C16.8851 6.66667 17.2308 7.01128 17.2308 7.4359V16.1538Z"
            fill="#00171F" />
    </svg>
    <svg id="menu-icon" width="20" height="14" viewBox="0 0 20 14" fill="none">
        <path
            d="M13.75 1.75H0.75C0.336 1.75 0 1.414 0 1C0 0.586 0.336 0.25 0.75 0.25H13.75C14.164 0.25 14.5 0.586 14.5 1C14.5 1.414 14.164 1.75 13.75 1.75ZM19.5 7C19.5 6.586 19.164 6.25 18.75 6.25H0.75C0.336 6.25 0 6.586 0 7C0 7.414 0.336 7.75 0.75 7.75H18.75C19.164 7.75 19.5 7.414 19.5 7ZM10.5 13C10.5 12.586 10.164 12.25 9.75 12.25H0.75C0.336 12.25 0 12.586 0 13C0 13.414 0.336 13.75 0.75 13.75H9.75C10.164 13.75 10.5 13.414 10.5 13Z"
            fill="#00171F" />
    </svg>
    <svg id="phone-icon" width="20" height="20" viewBox="0 0 20 20" fill="none">
        <path d="M14.8018 19.7497C14.3428 19.7497 13.8808 19.6877 13.4248 19.5627C7.25983 17.8707 2.37882 12.9927 0.68582 6.83174C0.30082 5.43074 0.511767 3.97074 1.28177 2.72274C2.05477 1.46874 3.32583 0.583733 4.76883 0.295733C5.72883 0.103733 6.67782 0.53174 7.16482 1.35274L8.72781 3.99272C9.48681 5.27472 9.10968 6.92573 7.86868 7.75173L6.73782 8.50374C7.79482 10.6737 9.57267 12.4567 11.7337 13.5127L12.4959 12.3757C13.3269 11.1367 14.9778 10.7657 16.2588 11.5287L18.9019 13.1047C19.7199 13.5927 20.1428 14.5477 19.9568 15.4797C19.6688 16.9227 18.7838 18.1937 17.5308 18.9667C16.6888 19.4847 15.7518 19.7497 14.8018 19.7497ZM5.22781 1.74773C5.17881 1.74773 5.12884 1.75274 5.08084 1.76274C4.02684 1.97374 3.11384 2.60872 2.55984 3.50972C2.01084 4.39972 1.85982 5.43873 2.13382 6.43373C3.68682 12.0867 8.16581 16.5637 13.8218 18.1157C14.8178 18.3887 15.8537 18.2367 16.7427 17.6887C17.6427 17.1337 18.2789 16.2197 18.4859 15.1837C18.5479 14.8727 18.4068 14.5537 18.1328 14.3907L15.4908 12.8147C14.8958 12.4607 14.1277 12.6337 13.7417 13.2087L12.6267 14.8737C12.4267 15.1717 12.0409 15.2857 11.7149 15.1477C8.75187 13.9087 6.34086 11.4927 5.10086 8.51873C4.96286 8.18673 5.07871 7.80473 5.37771 7.60573L7.03885 6.50072C7.61485 6.11772 7.7898 5.35072 7.4368 4.75572L5.87381 2.11672C5.73681 1.88472 5.48881 1.74773 5.22781 1.74773Z" fill="#00171F"></path>
    </svg>
    <svg id="search-icon" width="20" height="20" viewBox="0 0 20 20" fill="none"
    >
        <path
            d="M19.2802 18.47L15.4392 14.629C16.7232 13.106 17.5002 11.143 17.5002 9C17.5002 4.175 13.5752 0.25 8.75021 0.25C3.92521 0.25 0.000213623 4.175 0.000213623 9C0.000213623 13.825 3.92521 17.75 8.75021 17.75C10.8932 17.75 12.8562 16.973 14.3792 15.689L18.2202 19.53C18.3662 19.676 18.5582 19.75 18.7502 19.75C18.9422 19.75 19.1342 19.677 19.2802 19.53C19.5732 19.238 19.5732 18.763 19.2802 18.47ZM1.50021 9C1.50021 5.002 4.75221 1.75 8.75021 1.75C12.7482 1.75 16.0002 5.002 16.0002 9C16.0002 12.998 12.7482 16.25 8.75021 16.25C4.75221 16.25 1.50021 12.998 1.50021 9Z"
            fill="#00171F" />
    </svg>
    <svg id="user-icon" width="17" height="20" viewBox="0 0 17 20" fill="none">
        <path d="M8.75705 8.75C6.41305 8.75 4.50705 6.843 4.50705 4.5C4.50705 2.157 6.41305 0.25 8.75705 0.25C11.101 0.25 13.007 2.157 13.007 4.5C13.007 6.843 11.101 8.75 8.75705 8.75ZM8.75705 1.75C7.24005 1.75 6.00705 2.983 6.00705 4.5C6.00705 6.017 7.24005 7.25 8.75705 7.25C10.274 7.25 11.507 6.017 11.507 4.5C11.507 2.983 10.273 1.75 8.75705 1.75ZM16.498 19V16.019C16.498 13.358 14.992 10.25 10.748 10.25H6.74802C2.50402 10.25 0.998016 13.357 0.998016 16.019V19C0.998016 19.414 1.33402 19.75 1.74802 19.75C2.16202 19.75 2.49802 19.414 2.49802 19V16.019C2.49802 15.018 2.80502 11.75 6.74802 11.75H10.748C14.691 11.75 14.998 15.017 14.998 16.019V19C14.998 19.414 15.334 19.75 15.748 19.75C16.162 19.75 16.498 19.414 16.498 19Z"
            fill="#00171F" />
    </svg>
</svg>
