<svg width="76" height="35" viewBox="0 0 76 35" fill="none" xmlns="http://www.w3.org/2000/svg">
<path d="M6.42078 4.848C5.58878 4.848 4.81278 4.92 4.09278 5.064V19.416C4.81278 19.56 5.58878 19.632 6.42078 19.632C11.2688 19.632 13.6928 17.088 13.6928 12C13.6928 9.632 13.0768 7.848 11.8448 6.648C10.6128 5.448 8.80478 4.848 6.42078 4.848ZM15.5408 12C15.5408 15.024 14.7568 17.32 13.1888 18.888C11.6208 20.456 9.36478 21.24 6.42078 21.24C4.99678 21.24 3.58078 21.112 2.17278 20.856V3.624C3.61278 3.368 5.02878 3.24 6.42078 3.24C9.34878 3.24 11.5968 4 13.1648 5.52C14.7488 7.024 15.5408 9.184 15.5408 12ZM20.4522 5.088V10.8H28.3002V12.336H20.4522V19.392H28.7802V21H18.5322V3.48H28.7802V5.088H20.4522ZM31.4181 21L37.8261 3.48H39.9861L46.3701 21H44.3301L42.5541 15.888H35.1621L33.4101 21H31.4181ZM35.6901 14.352H42.0261L38.8821 5.208H38.8341L35.6901 14.352ZM51.2507 3.48V19.368H59.8187V21H49.2587V3.48H51.2507ZM67.677 4.8C66.573 4.8 65.717 5.048 65.109 5.544C64.501 6.024 64.197 6.696 64.197 7.56C64.197 9.112 65.333 10.232 67.605 10.92C69.589 11.496 70.997 12.216 71.829 13.08C72.677 13.944 73.101 15.064 73.101 16.44C73.101 17.992 72.613 19.184 71.637 20.016C70.677 20.832 69.301 21.24 67.509 21.24C65.525 21.24 63.765 20.736 62.229 19.728L62.805 18.144C64.197 19.136 65.765 19.632 67.509 19.632C68.693 19.632 69.597 19.36 70.221 18.816C70.861 18.272 71.181 17.48 71.181 16.44C71.181 15.48 70.909 14.72 70.365 14.16C69.837 13.584 68.901 13.088 67.557 12.672C64.053 11.632 62.301 9.928 62.301 7.56C62.301 6.248 62.773 5.2 63.717 4.416C64.677 3.632 65.997 3.24 67.677 3.24C69.485 3.24 71.165 3.616 72.717 4.368L72.237 5.856C70.845 5.152 69.325 4.8 67.677 4.8Z" fill="#00A8E8"/>
<path d="M2.95878 32.045C1.57278 32.045 0.546782 31.037 0.546782 29.633C0.546782 28.229 1.57278 27.23 2.95878 27.23C4.34478 27.23 5.36178 28.229 5.36178 29.633C5.36178 31.037 4.34478 32.045 2.95878 32.045ZM2.95878 31.478C3.96678 31.478 4.71378 30.74 4.71378 29.633C4.71378 28.526 3.96678 27.788 2.95878 27.788C1.95078 27.788 1.19478 28.526 1.19478 29.633C1.19478 30.74 1.95078 31.478 2.95878 31.478ZM9.07836 27.23C10.2304 27.23 11.0224 27.896 11.0224 29.255V32H10.3834V29.318C10.3834 28.319 9.86136 27.806 8.96136 27.806C7.94436 27.806 7.30536 28.436 7.30536 29.516V32H6.66636V27.266H7.27836V28.139C7.62036 27.563 8.25936 27.23 9.07836 27.23ZM12.4062 29.84V29.282H14.7642V29.84H12.4062ZM16.1937 32V25.322H16.8327V32H16.1937ZM18.9347 26.231C18.6737 26.231 18.4667 26.024 18.4667 25.772C18.4667 25.529 18.6737 25.322 18.9347 25.322C19.1957 25.322 19.4027 25.52 19.4027 25.763C19.4027 26.024 19.2047 26.231 18.9347 26.231ZM18.6107 32V27.266H19.2497V32H18.6107ZM23.4397 27.23C24.5917 27.23 25.3837 27.896 25.3837 29.255V32H24.7447V29.318C24.7447 28.319 24.2227 27.806 23.3227 27.806C22.3057 27.806 21.6667 28.436 21.6667 29.516V32H21.0277V27.266H21.6397V28.139C21.9817 27.563 22.6207 27.23 23.4397 27.23ZM31.2671 29.633C31.2671 29.687 31.2581 29.759 31.2581 29.831H27.2981C27.3701 30.821 28.1261 31.478 29.1611 31.478C29.7371 31.478 30.2501 31.271 30.6101 30.857L30.9701 31.271C30.5471 31.775 29.8901 32.045 29.1431 32.045C27.6671 32.045 26.6591 31.037 26.6591 29.633C26.6591 28.229 27.6401 27.23 28.9721 27.23C30.3041 27.23 31.2671 28.211 31.2671 29.633ZM28.9721 27.779C28.0541 27.779 27.3791 28.427 27.2981 29.354H30.6551C30.5741 28.427 29.8991 27.779 28.9721 27.779ZM39.6392 27.266H40.2332V32H39.6482V28.256L37.7312 31.424H37.4432L35.5262 28.247V32H34.9412V27.266H35.5892L37.5962 30.677L39.6392 27.266ZM43.6805 27.23C44.9045 27.23 45.5975 27.842 45.5975 29.066V32H44.9855V31.262C44.6975 31.748 44.1395 32.045 43.3565 32.045C42.2855 32.045 41.6285 31.487 41.6285 30.668C41.6285 29.939 42.0965 29.327 43.4555 29.327H44.9585V29.039C44.9585 28.229 44.4995 27.788 43.6175 27.788C43.0055 27.788 42.4295 28.004 42.0425 28.346L41.7545 27.869C42.2315 27.464 42.9335 27.23 43.6805 27.23ZM43.4555 31.541C44.1755 31.541 44.7065 31.199 44.9585 30.578V29.804H43.4735C42.5555 29.804 42.2585 30.164 42.2585 30.65C42.2585 31.199 42.6995 31.541 43.4555 31.541ZM50.6466 27.266V27.833H47.9376V32H47.2986V27.266H50.6466ZM53.1991 27.23C54.4231 27.23 55.1161 27.842 55.1161 29.066V32H54.5041V31.262C54.2161 31.748 53.6581 32.045 52.8751 32.045C51.8041 32.045 51.1471 31.487 51.1471 30.668C51.1471 29.939 51.6151 29.327 52.9741 29.327H54.4771V29.039C54.4771 28.229 54.0181 27.788 53.1361 27.788C52.5241 27.788 51.9481 28.004 51.5611 28.346L51.2731 27.869C51.7501 27.464 52.4521 27.23 53.1991 27.23ZM52.9741 31.541C53.6941 31.541 54.2251 31.199 54.4771 30.578V29.804H52.9921C52.0741 29.804 51.7771 30.164 51.7771 30.65C51.7771 31.199 52.2181 31.541 52.9741 31.541ZM59.0245 29.534C59.6905 29.687 60.0775 30.083 60.0775 30.641C60.0775 31.496 59.1325 32.054 57.9535 32.054C57.2785 32.054 56.5855 31.856 56.0815 31.469L56.2975 30.992C56.7385 31.325 57.3505 31.505 57.9265 31.505C58.7815 31.505 59.4205 31.163 59.4205 30.587C59.4205 30.083 58.9345 29.786 58.1425 29.786H57.3325V29.318H58.1065C58.7995 29.318 59.2855 29.039 59.2855 28.571C59.2855 28.049 58.7275 27.761 57.9715 27.761C57.4855 27.761 56.9635 27.887 56.4595 28.148L56.2795 27.653C56.8645 27.347 57.4585 27.212 58.0345 27.212C59.1145 27.212 59.9425 27.707 59.9425 28.481C59.9425 28.976 59.5735 29.354 59.0245 29.534ZM61.5281 32V27.266H62.1671V31.028L65.3261 27.266H65.8931V32H65.2541V28.238L62.1041 32H61.5281ZM67.7244 32V27.266H68.3634V29.363H71.3424V27.266H71.9814V32H71.3424V29.912H68.3634V32H67.7244Z" fill="#9CA3AF"/>
</svg>
